<svg width="36" height="38" viewBox="0 0 36 38" fill="none" xmlns="http://www.w3.org/2000/svg">
<path d="M34.4211 22.1915L34.4211 22.1898L34.7996 10.4998L34.8 10.4869V10.4739C34.8 9.05577 34.2818 7.89937 33.1152 7.24251C32.0168 6.62398 30.8714 6.62917 29.7601 7.23799L29.7601 7.23794L29.752 7.24251C29.3988 7.44137 29.0927 7.69201 28.8436 7.99509L28.7681 5.38213L28.7681 5.38213L28.7677 5.37213C28.7396 4.69238 28.5748 4.06401 28.2308 3.51953C27.8857 2.97334 27.3911 2.56084 26.7821 2.26624C25.5935 1.67978 24.3659 1.67788 23.1975 2.24177C22.6807 2.49122 22.2483 2.84134 21.9332 3.2985C21.8762 3.17338 21.8114 3.05191 21.7385 2.93443C21.3735 2.34588 20.8388 1.91135 20.1839 1.61637C18.9007 1.03832 17.5887 1.06737 16.3381 1.67097C15.6997 1.97907 15.1822 2.41977 14.8533 3.01462C14.525 3.60836 14.4226 4.2866 14.4942 5.00508L14.4949 5.01247L14.4958 5.01985L14.5986 5.8883C14.3001 5.62384 13.9456 5.40533 13.5382 5.23681C12.345 4.7432 11.1232 4.7591 9.99382 5.36153C9.4198 5.66774 8.96281 6.10107 8.67986 6.67585C8.3998 7.24477 8.32137 7.88873 8.39195 8.57L8.39188 8.57L8.39307 8.58022L9.43573 17.5221L8.34009 16.2001C7.43349 15.081 6.24744 14.5246 4.82325 14.7269C3.49848 14.8956 2.43318 15.581 1.7388 16.726C1.38821 17.3042 1.19611 17.9272 1.20006 18.5841C1.204 19.2381 1.40189 19.875 1.75313 20.4852L1.75452 20.4876C3.41946 23.3575 4.93442 25.6598 6.32205 27.3517C7.70682 29.0402 9.47024 30.8104 11.631 32.618L11.6413 32.6266L11.6518 32.6348C12.0509 32.9467 12.1013 33.1506 12.1013 33.2602V34.4018C12.1013 35.0605 12.3599 35.6192 12.7725 36.0506L12.7836 36.0622L12.7951 36.0733C13.2179 36.4815 13.7388 36.7538 14.3894 36.7543C14.3901 36.7543 14.3907 36.7543 14.3914 36.7543L27.1613 36.8H27.1642C27.7854 36.8 28.3126 36.5741 28.7605 36.1418C29.2085 35.7094 29.4544 35.1877 29.4544 34.5616C29.4544 33.199 29.6394 32.2432 29.9411 31.6244C30.2785 30.9325 30.8216 30.1489 31.5671 29.3202L31.7215 29.1486L31.7441 29.0175C31.7609 28.9998 31.7828 28.9778 31.8118 28.9497L31.8494 28.9135L31.8819 28.8727C32.8417 27.6683 33.5467 26.5817 33.8762 25.6807C34.2023 24.7889 34.3726 23.5958 34.4211 22.1915Z" fill="black" stroke="black" stroke-width="1.6"/>
<path d="M33.6216 22.1639C33.5742 23.5338 33.4087 24.6297 33.1248 25.406C32.841 26.1823 32.2024 27.1869 31.2562 28.3741C31.0907 28.534 30.996 28.6481 30.9724 28.7851C30.1918 29.6527 29.6005 30.4975 29.222 31.2738C28.8436 32.0501 28.6544 33.146 28.6544 34.5616C28.6544 34.9497 28.5124 35.2694 28.2049 35.5662C27.8974 35.863 27.5663 36 27.1642 36L14.3914 35.9543C13.9893 35.9543 13.6582 35.7945 13.3507 35.4977C13.0668 35.2009 12.9013 34.8356 12.9013 34.4018V33.2602C12.9013 32.8035 12.6411 32.3926 12.1444 32.0044C10.0156 30.2235 8.28886 28.4883 6.94062 26.8444C5.59239 25.2005 4.10223 22.9402 2.4465 20.0862C1.85517 19.0587 1.85517 18.077 2.42285 17.1409C2.99053 16.2047 3.84204 15.6568 4.93009 15.5198C6.0418 15.36 6.96429 15.7709 7.72119 16.707L9.80268 19.2186C9.92095 19.3784 10.0629 19.424 10.2284 19.3555C10.394 19.3099 10.4413 19.1957 10.4177 19.0359L9.18769 8.48756C9.06942 7.34597 9.47153 6.54685 10.3704 6.06738C11.2692 5.58791 12.239 5.56508 13.2324 5.97605C14.2258 6.38703 14.7935 7.14048 14.9118 8.21358L15.7397 15.4741C15.7397 15.6339 15.8106 15.7253 15.9762 15.7938C16.1418 15.8394 16.26 15.8394 16.4019 15.7481C16.5202 15.6568 16.5675 15.5198 16.5202 15.3143L15.2902 4.92579C15.172 3.73853 15.645 2.89375 16.6858 2.39144C17.7265 1.88914 18.7909 1.86631 19.8553 2.34578C20.9197 2.82525 21.4638 3.69286 21.4638 4.94862L21.8186 15.2686C21.8186 15.4513 21.8895 15.5883 22.0314 15.6796C22.1734 15.7481 22.2916 15.7253 22.4099 15.6339C22.5282 15.5426 22.5991 15.3371 22.5991 15.0631L22.1734 5.42809C22.126 4.24083 22.5991 3.41888 23.5452 2.96224C24.4914 2.5056 25.4612 2.5056 26.4309 2.98507C27.4244 3.46454 27.9211 4.26366 27.9684 5.40525L28.2523 15.223C28.2523 15.497 28.3232 15.6796 28.4888 15.7938C28.6544 15.9079 28.7726 15.9079 28.9145 15.8166C29.0328 15.7253 29.1038 15.5426 29.1038 15.2686L28.9145 10.4283C28.8672 9.24101 29.293 8.41907 30.1445 7.9396C31.0197 7.46013 31.8712 7.46013 32.7227 7.9396C33.5742 8.41907 34 9.26385 34 10.4739L33.6216 22.1639Z" fill="#FFF8E4"/>
</svg>
