<svg width="36" height="38" viewBox="0 0 36 38" fill="none" xmlns="http://www.w3.org/2000/svg">
<path d="M34.5198 20.6275L34.5202 20.6204L34.5204 20.6133L34.7955 12.2995C34.7955 12.2988 34.7955 12.2981 34.7956 12.2974C34.8524 10.7528 34.3544 9.50017 33.176 8.74707L33.169 8.74257L33.1618 8.73822C32.6259 8.41132 32.05 8.21675 31.4402 8.20795C30.8291 8.19914 30.2415 8.37785 29.6854 8.70766C29.3092 8.93074 28.9988 9.20505 28.7496 9.52315L28.767 7.7759L28.767 7.7759V7.76795C28.767 7.02753 28.621 6.34417 28.2851 5.74978C27.9472 5.15165 27.445 4.69351 26.8141 4.36423C25.5774 3.7055 24.28 3.71157 23.0335 4.32978C22.4238 4.63218 21.9365 5.06419 21.5987 5.62773C21.5266 5.44414 21.44 5.26736 21.3382 5.09816C20.9532 4.45841 20.3829 3.98257 19.67 3.65815C18.2987 3.02267 16.8912 3.052 15.5714 3.72292C14.894 4.06729 14.3634 4.55915 14.049 5.21622C13.7375 5.86718 13.6747 6.60372 13.7921 7.37896L13.792 7.37897L13.7939 7.39036L13.8863 7.94659C13.4813 7.5841 12.9953 7.33113 12.4498 7.17637C11.1354 6.80344 9.88394 7.02934 8.7644 7.82917L8.76436 7.82911L8.75597 7.83528C8.19456 8.2475 7.77715 8.76984 7.54156 9.40284C7.30786 10.0308 7.27189 10.7166 7.38928 11.4327L7.38927 11.4327L7.39005 11.4373L7.83475 14.0549C7.24446 12.8177 6.32942 11.9122 5.04414 11.8033C3.81652 11.6993 2.81593 12.2506 2.05859 13.267C1.27195 14.3227 1.06036 15.6251 1.28439 17.0487L1.28437 17.0487L1.2854 17.0549C1.75219 19.876 2.71339 22.4663 4.16917 24.845C5.6213 27.2177 7.72872 29.6401 10.4662 32.1398L10.4814 32.1536L10.4973 32.1667C10.9212 32.5156 11.0062 32.7685 11.0062 32.9479V34.2196C11.0062 34.9147 11.2644 35.5103 11.6892 35.9782L11.6999 35.99L11.7112 36.0014C12.1476 36.4452 12.6918 36.7485 13.3799 36.7491C13.3807 36.7491 13.3815 36.7491 13.3822 36.7491L26.8883 36.8H26.8913C27.5494 36.8 28.1001 36.5477 28.5624 36.0777C29.0246 35.6078 29.2673 35.054 29.2673 34.3976C29.2673 32.8702 29.464 31.7835 29.7937 31.0711C30.1557 30.2891 30.7358 29.409 31.5273 28.4824L31.6723 28.3126L31.6964 28.1657C31.6988 28.1629 31.7014 28.1599 31.7042 28.1567C31.7244 28.1336 31.7516 28.1045 31.7895 28.0659L31.8233 28.0317L31.8526 27.9936C32.8777 26.6648 33.5897 25.4623 33.9307 24.4223L33.9338 24.4128L33.9366 24.4033C34.2349 23.4109 34.4424 22.149 34.5198 20.6275ZM21.8874 12.8811C21.8874 12.8811 21.8874 12.8809 21.8874 12.8805L21.8874 12.8811Z" fill="black" stroke="black" stroke-width="1.6"/>
<path d="M33.7209 20.5868C33.6458 22.062 33.4457 23.2574 33.1705 24.1731C32.8703 25.0887 32.2199 26.2078 31.2192 27.505C31.0441 27.683 30.944 27.8102 30.919 27.9628C30.0934 28.9293 29.468 29.8703 29.0677 30.7351C28.6675 31.5999 28.4673 32.8207 28.4673 34.3976C28.4673 34.83 28.3172 35.1861 27.992 35.5167C27.6668 35.8474 27.3166 36 26.8913 36L13.3822 35.9491C12.9569 35.9491 12.6067 35.7711 12.2815 35.4405C11.9813 35.1098 11.8062 34.7029 11.8062 34.2196V32.9479C11.8062 32.4392 11.531 31.9814 11.0056 31.549C8.30383 29.0819 6.25246 26.7165 4.85152 24.4274C3.45058 22.1383 2.52497 19.6458 2.07466 16.9243C1.87453 15.6526 2.07466 14.5843 2.70008 13.745C3.3255 12.9057 4.076 12.5242 4.9766 12.6005C5.87721 12.6768 6.60269 13.3126 7.12804 14.4317L8.50396 17.2804C8.62904 17.5347 8.77915 17.611 8.97928 17.5093C9.17942 17.4075 9.22945 17.2041 9.12938 16.8989L8.17875 11.3033C7.97861 10.0825 8.32885 9.1414 9.22945 8.48011C10.1551 7.81882 11.1557 7.64078 12.2315 7.94599C13.3072 8.2512 13.9826 8.98879 14.2328 10.1842L14.7832 13.1855C14.8332 13.3889 14.9083 13.5161 15.0584 13.567C15.2085 13.6178 15.3335 13.567 15.4336 13.4652C15.5337 13.3635 15.5587 13.2109 15.5337 12.982L14.583 7.25926C14.3829 5.93668 14.8332 4.99561 15.9339 4.43606C17.0347 3.87651 18.1855 3.85107 19.3362 4.38519C20.512 4.91931 21.0874 5.88581 21.0874 7.2847V12.8802C21.0874 13.0837 21.1624 13.2618 21.3125 13.3635C21.4626 13.4652 21.5877 13.4907 21.7128 13.3889C21.8379 13.3126 21.913 13.1346 21.913 12.8802L21.8629 7.79338C21.8629 6.4708 22.3632 5.55517 23.3889 5.04648C24.4146 4.5378 25.4403 4.5378 26.441 5.07192C27.4667 5.60604 27.967 6.49623 27.967 7.76795L27.917 12.8039C27.917 13.1091 27.992 13.3126 28.1421 13.4652C28.2922 13.6178 28.4173 13.6433 28.5424 13.5161C28.6675 13.4144 28.7425 13.1854 28.7425 12.8548V12.2189C28.7425 10.8709 29.1928 9.92986 30.0934 9.39575C30.994 8.86163 31.8696 8.88706 32.7452 9.42118C33.6208 9.98073 34.0461 10.9218 33.996 12.2698L33.7209 20.5868Z" fill="#FFF8E4"/>
</svg>
