<svg width="274" height="67" viewBox="0 0 274 67" fill="none" xmlns="http://www.w3.org/2000/svg">
<rect x="0.274658" width="273.451" height="67" rx="9.08475" fill="#E54646"/>
<path d="M46.4043 30.0818C46.3847 32.4151 45.6788 34.0034 44.2867 34.8465C42.8945 35.6896 41.0612 36.1112 38.7868 36.1112H33.5809V42.1699H30.9927V23.6408H38.375C40.9632 23.6408 42.9436 24.1211 44.3161 25.0819C45.7082 26.0231 46.4043 27.6897 46.4043 30.0818ZM43.6985 29.8171C43.6985 28.5034 43.3357 27.5231 42.6102 26.876C41.9044 26.229 40.7475 25.9054 39.1397 25.9054L33.6104 25.9348V33.6994H39.1691C40.8357 33.6994 42.0024 33.3661 42.6691 32.6995C43.3553 32.0328 43.6985 31.072 43.6985 29.8171ZM51.3656 23.6408V39.7288H62.1596V42.1699H48.7774V23.6408H51.3656ZM79.4287 42.1699L77.8405 38.2288H67.87L66.2818 42.1699H63.4289L71.2817 23.6408H74.4876L82.2522 42.1699H79.4287ZM68.7818 35.9641H76.9287L72.8699 25.9348L68.7818 35.9641ZM86.7328 42.1699V35.1994L79.7035 23.6408H82.8211L88.0857 32.4642L93.6739 23.6408H96.7915L89.4093 35.1994V42.1699H86.7328ZM112.416 42.1699V26.0231H105.74V23.6408H121.681V26.0231H115.005V42.1699H112.416ZM126.676 36.6406V42.1993H124.029V23.6408H126.647V34.3171H138.411V23.6408H141.058V42.1699H138.441V36.6406H126.676ZM155.642 31.0818V33.2583H146.907V39.7876L159.377 39.7288V42.1699H144.318V23.6408H159.377V26.0231H146.936V31.0818H155.642ZM174.454 35.0818C176.16 35.5328 177.111 36.6112 177.307 38.317L177.748 42.1699H175.042C175.003 41.6601 174.983 41.2974 174.983 41.0817C174.885 39.5327 174.729 38.4543 174.513 37.8464C174.317 37.219 173.836 36.768 173.072 36.4935C172.327 36.1994 171.052 36.0524 169.248 36.0524H165.013V42.1699H162.425V23.6113H170.042C172.513 23.6113 174.454 24.0525 175.866 24.9349C177.297 25.7976 178.013 27.4054 178.013 29.7583C178.013 32.2485 176.827 34.023 174.454 35.0818ZM170.278 33.8759C172.062 33.8759 173.366 33.5524 174.189 32.9053C175.033 32.2387 175.454 31.2387 175.454 29.9054C175.454 28.6309 175.033 27.6603 174.189 26.9937C173.366 26.327 172.111 26.0035 170.425 26.0231L165.042 26.0525V33.8759H170.278ZM191.924 31.0818V33.2583H183.188V39.7876L195.659 39.7288V42.1699H180.6V23.6408H195.659V26.0231H183.218V31.0818H191.924ZM214.295 23.6408H216.912V42.1699H214.324V27.2289L208.589 34.6112H206.942L201.324 27.2289L201.295 42.1699H198.707V23.6408H201.265L207.765 31.6995L214.295 23.6408ZM222.861 23.6408V42.1699H220.214V23.6408H222.861ZM240.782 23.6408H243.37V42.1699H240.782L228.782 27.6701V42.1699H226.165V23.6408H228.753L240.782 38.3464V23.6408Z" fill="#FFF8E4"/>
</svg>
