<svg width="1204" height="295" viewBox="0 0 1204 295" fill="none" xmlns="http://www.w3.org/2000/svg">
<rect width="1204" height="295" rx="40" fill="#E54646"/>
<path d="M203.109 131.776C203.022 142.05 199.914 149.043 193.785 152.755C187.655 156.467 179.583 158.323 169.569 158.323H146.648V185H135.252V103.416H167.756C179.152 103.416 187.871 105.531 193.914 109.762C200.044 113.906 203.109 121.244 203.109 131.776ZM191.195 130.611C191.195 124.827 189.598 120.51 186.404 117.661C183.296 114.812 178.202 113.388 171.123 113.388L146.777 113.517V147.705H171.252C178.59 147.705 183.727 146.237 186.663 143.302C189.684 140.366 191.195 136.136 191.195 130.611ZM224.953 103.416V174.252H272.479V185H213.558V103.416H224.953ZM348.515 185L341.522 167.647H297.622L290.629 185H278.068L312.644 103.416H326.759L360.946 185H348.515ZM301.636 157.676H337.507L319.637 113.517L301.636 157.676ZM380.675 185V154.309L349.725 103.416H363.451L386.632 142.266L411.236 103.416H424.963L392.459 154.309V185H380.675ZM493.759 185V113.906H464.363V103.416H534.55V113.906H505.154V185H493.759ZM556.545 160.654V185.129H544.89V103.416H556.415V150.424H608.214V103.416H619.869V185H608.344V160.654H556.545ZM684.08 136.179V145.762H645.619V174.511L700.526 174.252V185H634.223V103.416H700.526V113.906H645.749V136.179H684.08ZM766.91 153.791C774.421 155.777 778.608 160.525 779.471 168.036L781.414 185H769.5C769.327 182.755 769.241 181.158 769.241 180.209C768.809 173.388 768.119 168.64 767.169 165.964C766.306 163.201 764.191 161.216 760.824 160.007C757.543 158.712 751.932 158.064 743.989 158.064H725.341V185H713.945V103.287H747.485C758.363 103.287 766.91 105.229 773.126 109.114C779.428 112.913 782.579 119.992 782.579 130.352C782.579 141.316 777.356 149.129 766.91 153.791ZM748.521 148.482C756.378 148.482 762.119 147.057 765.745 144.208C769.457 141.273 771.313 136.87 771.313 130.999C771.313 125.388 769.457 121.114 765.745 118.179C762.119 115.244 756.593 113.819 749.169 113.906L725.471 114.035V148.482H748.521ZM843.828 136.179V145.762H805.367V174.511L860.274 174.252V185H793.971V103.416H860.274V113.906H805.496V136.179H843.828ZM942.327 103.416H953.852V185H942.457V119.215L917.205 151.719H909.953L885.219 119.215L885.089 185H873.693V103.416H884.96L913.579 138.899L942.327 103.416ZM980.043 103.416V185H968.389V103.416H980.043ZM1058.95 103.416H1070.35V185H1058.95L1006.12 121.158V185H994.592V103.416H1005.99L1058.95 168.165V103.416Z" fill="#FFF8E4"/>
</svg>
